<svg xmlns="http://www.w3.org/2000/svg" viewBox="0 0 32 32" width="32" height="32">
  <rect x="4.5" y="7.5" width="3.4" height="3.4" rx="1.1" fill="black" opacity="0.42"></rect>
  <rect x="9.3" y="7.5" width="3.4" height="3.4" rx="1.1" fill="black" opacity="1"></rect>
  <rect x="14.1" y="7.5" width="3.4" height="3.4" rx="1.1" fill="black" opacity="0.42"></rect>
  <rect x="18.9" y="7.5" width="3.4" height="3.4" rx="1.1" fill="black" opacity="0.42"></rect>
  <rect x="23.7" y="7.5" width="3.4" height="3.4" rx="1.1" fill="black" opacity="0.42"></rect>
  <rect x="4.5" y="13.7" width="3.4" height="3.4" rx="1.1" fill="black" opacity="0.42"></rect>
  <rect x="9.3" y="13.7" width="3.4" height="3.4" rx="1.1" fill="black" opacity="0.42"></rect>
  <rect x="14.1" y="13.7" width="3.4" height="3.4" rx="1.1" fill="black" opacity="0.42"></rect>
  <rect x="18.9" y="13.7" width="3.4" height="3.4" rx="1.1" fill="black" opacity="1"></rect>
  <rect x="23.7" y="13.7" width="3.4" height="3.4" rx="1.1" fill="black" opacity="0.42"></rect>
  <rect x="4.5" y="19.9" width="3.4" height="3.4" rx="1.1" fill="black" opacity="0.42"></rect>
  <rect x="9.3" y="19.9" width="3.4" height="3.4" rx="1.1" fill="black" opacity="0.42"></rect>
  <rect x="14.1" y="19.9" width="3.4" height="3.4" rx="1.1" fill="black" opacity="1"></rect>
  <rect x="18.9" y="19.9" width="3.4" height="3.4" rx="1.1" fill="black" opacity="0.42"></rect>
  <rect x="23.7" y="19.9" width="3.4" height="3.4" rx="1.1" fill="black" opacity="0.42"></rect>
</svg>
